<svg width="170" height="92" viewBox="0 0 170 92" fill="none" xmlns="http://www.w3.org/2000/svg">
<rect x="0.5" y="0.5" width="169" height="91" rx="3.5" stroke="#AFB1B8"/>
<path fill-rule="evenodd" clip-rule="evenodd" d="M70 24.7131L77.0078 31.3473L64 31.3396V63.5269H98V51.2202L105 57.8469V24.7131H70ZM97.6924 50.4415L77.8226 31.6311H97.6924V50.4415ZM91.5231 58.8187H69.3801V37.1711H70.9453V57.3528H91.5231V58.8187ZM74.6089 67.8123L73.791 69.4968L72.9731 67.8123H72.2871L73.481 70.0583V71.3669H74.1011V70.0583L75.2925 67.8123H74.6089ZM75.6367 71.3669L75.9248 70.5393H77.3018L77.5923 71.3669H78.2368L76.8916 67.8123H76.3374L74.9946 71.3669H75.6367ZM76.6133 68.5667L77.1284 70.0413H76.0981L76.6133 68.5667ZM79.8701 69.9558C79.7806 70.0925 79.7358 70.2431 79.7358 70.4075C79.7358 70.707 79.8408 70.9503 80.0508 71.1375C80.2624 71.323 80.5439 71.4158 80.8955 71.4158C81.2471 71.4158 81.5498 71.3206 81.8037 71.1301L82.0039 71.3669H82.6924L82.1699 70.7493C82.375 70.4693 82.4775 70.1104 82.4775 69.6726H81.9624C81.9624 69.9119 81.9128 70.1292 81.8135 70.3245L81.1274 69.5139L81.3691 69.3381C81.54 69.2144 81.6629 69.0907 81.7378 68.967C81.8127 68.8417 81.8501 68.705 81.8501 68.5569C81.8501 68.3323 81.7671 68.1443 81.6011 67.9929C81.4367 67.8399 81.2251 67.7634 80.9663 67.7634C80.6798 67.7634 80.452 67.8448 80.2827 68.0076C80.1134 68.1687 80.0288 68.3884 80.0288 68.6667C80.0288 68.7807 80.0557 68.8987 80.1094 69.0208C80.1647 69.1428 80.2616 69.2909 80.3999 69.4651C80.1362 69.6539 79.9596 69.8175 79.8701 69.9558ZM81.4741 70.7419C81.3 70.8754 81.1128 70.9421 80.9126 70.9421C80.7352 70.9421 80.5936 70.8909 80.4878 70.7883C80.382 70.6858 80.3291 70.5523 80.3291 70.3879C80.3291 70.1975 80.4268 70.0282 80.6221 69.8801L80.6978 69.8264L81.4741 70.7419ZM80.8369 69.1672C80.6693 68.9605 80.5854 68.7888 80.5854 68.6521C80.5854 68.5333 80.6196 68.4348 80.688 68.3567C80.7563 68.2786 80.8483 68.2395 80.9639 68.2395C81.0713 68.2395 81.16 68.2729 81.23 68.3396C81.3 68.4047 81.335 68.4836 81.335 68.5764C81.335 68.7164 81.2845 68.8311 81.1836 68.9207L81.1079 68.9817L80.8369 69.1672ZM86.623 71.0984C86.8672 70.8852 87.0072 70.5889 87.043 70.2097H86.4277C86.3952 70.4636 86.3179 70.6451 86.1958 70.7542C86.0737 70.8632 85.8914 70.9177 85.6489 70.9177C85.3836 70.9177 85.1818 70.8168 85.0435 70.615C84.9067 70.4132 84.8384 70.1202 84.8384 69.7361V69.4211C84.8416 69.0419 84.9149 68.7546 85.0581 68.5593C85.203 68.3624 85.4097 68.2639 85.6782 68.2639C85.9093 68.2639 86.0843 68.3209 86.2031 68.4348C86.3236 68.5471 86.3984 68.731 86.4277 68.9866H87.043C87.0039 68.5976 86.8647 68.2965 86.6255 68.0833C86.3862 67.87 86.0705 67.7634 85.6782 67.7634C85.3869 67.7634 85.1297 67.8326 84.9067 67.9709C84.6854 68.1093 84.5153 68.3062 84.3965 68.5618C84.2777 68.8173 84.2183 69.1127 84.2183 69.448V69.78C84.2231 70.1072 84.2842 70.3945 84.4014 70.6418C84.5186 70.8892 84.6846 71.0805 84.8994 71.2156C85.1159 71.349 85.3657 71.4158 85.6489 71.4158C86.0542 71.4158 86.3789 71.31 86.623 71.0984ZM90.2534 70.6003C90.3739 70.3367 90.4341 70.0307 90.4341 69.6824V69.4846C90.4325 69.1379 90.3706 68.8344 90.2485 68.574C90.1265 68.3119 89.9531 68.1117 89.7285 67.9734C89.5055 67.8334 89.2492 67.7634 88.9595 67.7634C88.6698 67.7634 88.4126 67.8342 88.188 67.9758C87.965 68.1158 87.7917 68.3184 87.668 68.5837C87.5459 68.849 87.4849 69.155 87.4849 69.5017V69.7019C87.4865 70.0421 87.5483 70.3424 87.6704 70.6028C87.7941 70.8632 87.9683 71.0642 88.1929 71.2058C88.4191 71.3458 88.6763 71.4158 88.9644 71.4158C89.2557 71.4158 89.5129 71.3458 89.7358 71.2058C89.9604 71.0642 90.133 70.8624 90.2534 70.6003ZM89.5918 68.5911C89.7415 68.801 89.8164 69.1029 89.8164 69.4968V69.6824C89.8164 70.0828 89.7423 70.3871 89.5942 70.5955C89.4478 70.8038 89.2378 70.908 88.9644 70.908C88.6942 70.908 88.4826 70.8013 88.3296 70.5881C88.1782 70.3749 88.1025 70.073 88.1025 69.6824V69.4773C88.1058 69.0948 88.1823 68.7994 88.332 68.5911C88.4834 68.3811 88.6925 68.2761 88.9595 68.2761C89.2329 68.2761 89.4437 68.3811 89.5918 68.5911Z" fill="#AFB1B8"/>
</svg>
